<?xml version="1.0" standalone="no"?>
<!DOCTYPE svg PUBLIC "-//W3C//DTD SVG 20010904//EN"
 "http://www.w3.org/TR/2001/REC-SVG-20010904/DTD/svg10.dtd">
<svg version="1.0" xmlns="http://www.w3.org/2000/svg"
 width="500.000000pt" height="500.000000pt" viewBox="0 0 500.000000 500.000000"
 preserveAspectRatio="xMidYMid meet">
<metadata>
Created by potrace 1.11, written by Peter Selinger 2001-2013
</metadata>
<g transform="translate(0.000000,500.000000) scale(0.100000,-0.100000)"
fill="#000000" stroke="none">
<path d="M0 2500 l0 -2500 2500 0 2500 0 0 2500 0 2500 -2500 0 -2500 0 0
-2500z m2860 2290 c484 -82 886 -285 1221 -620 357 -355 562 -759 640 -1260
25 -158 29 -441 10 -585 -68 -511 -271 -938 -616 -1294 -364 -376 -822 -602
-1355 -667 -157 -19 -434 -15 -590 10 -710 112 -1333 565 -1654 1204 -99 197
-159 376 -202 602 -36 185 -44 494 -20 687 81 638 445 1226 973 1574 314 207
645 323 1063 373 91 11 410 -3 530 -24z"/>
</g>
</svg>
